<?xml version="1.0" encoding="UTF-8" standalone="no"?>
<svg
   xmlns:dc="http://purl.org/dc/elements/1.1/"
   xmlns:cc="http://creativecommons.org/ns#"
   xmlns:rdf="http://www.w3.org/1999/02/22-rdf-syntax-ns#"
   xmlns:svg="http://www.w3.org/2000/svg"
   xmlns="http://www.w3.org/2000/svg"
   xmlns:sodipodi="http://sodipodi.sourceforge.net/DTD/sodipodi-0.dtd"
   xmlns:inkscape="http://www.inkscape.org/namespaces/inkscape"
   width="752pt"
   height="752pt"
   version="1.1"
   viewBox="0 0 752 752"
   id="svg18"
   sodipodi:docname="download.svg"
   inkscape:export-filename="/home/blaze/Desktop/double.svg.png"
   inkscape:export-xdpi="95.913002"
   inkscape:export-ydpi="95.913002"
   inkscape:version="0.92.5 (2060ec1f9f, 2020-04-08)">
  <metadata
     id="metadata24">
    <rdf:RDF>
      <cc:Work
         rdf:about="">
        <dc:format>image/svg+xml</dc:format>
        <dc:type
           rdf:resource="http://purl.org/dc/dcmitype/StillImage" />
      </cc:Work>
    </rdf:RDF>
  </metadata>
  <defs
     id="defs22" />
  <sodipodi:namedview
     pagecolor="#ffffff"
     bordercolor="#666666"
     borderopacity="1"
     objecttolerance="10"
     gridtolerance="10"
     guidetolerance="10"
     inkscape:pageopacity="0"
     inkscape:pageshadow="2"
     inkscape:window-width="1528"
     inkscape:window-height="836"
     id="namedview20"
     showgrid="false"
     inkscape:zoom="0.33286676"
     inkscape:cx="-336.20055"
     inkscape:cy="129.65137"
     inkscape:window-x="72"
     inkscape:window-y="27"
     inkscape:window-maximized="1"
     inkscape:current-layer="g16" />
  <g
     id="g16">
    <path
       d="m 752,377.12651 c 0,133.92747 -71.44929,257.68554 -187.43674,324.64429 -115.99145,66.96673 -258.88204,66.96673 -374.87349,0 C 73.698333,634.80805 2.2530299,511.05398 2.2530299,377.12651 c 0,-133.92749 71.4492911,-257.68554 187.4367401,-324.644305 115.99145,-66.966735 258.88204,-66.966735 374.87349,0 C 680.55469,119.44496 752,243.19902 752,377.12651"
       id="path2"
       style="fill:#3cbb36;fill-opacity:1;stroke-width:0.99700373"
       inkscape:connector-curvature="0" />
    <path
       d="m297.33 476.91-25.113 25.113c-1.5273 1.5273-4.1172 1.3867-5.5977-0.14062l-107.98-107.94c-1.5273-1.5273-1.5742-4.0703-0.09375-5.5508l22.43-22.43c1.5273-1.5273 4.0234-1.3867 5.5039 0.14062z"
       fill="#ff001b"
       id="path4"
       style="fill:#ffffff;fill-opacity:1" />
    <path
       d="m294.1 473.68c-4.4414 4.4414-8.9258 8.9258-13.367 13.367-2.8672 2.8672-5.7812 5.7812-8.6484 8.6484-0.83203 0.83203-1.7109 1.6641-2.543 2.543-1.2031 1.2969 0.41797-0.23047 0.32422 0.46094 0-0.23047-1.0625-1.0625-1.2031-1.2031-1.1094-1.1094-2.1719-2.1719-3.2852-3.2852-3.9297-3.9297-7.8633-7.8633-11.746-11.746-11.934-11.934-23.863-23.863-35.75-35.75-12.211-12.211-24.465-24.465-36.676-36.676-4.3008-4.3008-8.6016-8.6016-12.949-12.949-1.3398-1.3398-2.6836-2.6836-4.0234-4.0234-0.50781-0.50781-1.3867-1.8047-2.082-2.082-0.41797-0.18359 0.046874-0.41797-0.046876 0.27734-0.046874 0.55469-0.46094 0.46094-0.046874 0.27734 0.27734-0.14062 0.64844-0.64844 0.87891-0.87891 2.543-2.543 5.043-5.043 7.5859-7.5859 3.1445-3.1445 6.3359-6.3359 9.4805-9.4805l3.1914-3.1914c0.27734-0.27734 0.60156-0.50781 0.83203-0.83203 0.37109-0.50781 0.32422 0-0.18359-0.046875-1.0625-0.046875-0.55469-0.32422-0.37109 0.046875 0.14062 0.27734 0.50781 0.50781 0.73828 0.73828 0.97266 0.97266 1.9883 1.9883 2.9609 2.9609 3.6992 3.6992 7.4453 7.4453 11.145 11.145l95.871 95.871c4.207 4.207 10.777-2.3125 6.5195-6.5195-5.5039-5.5039-11.008-11.008-16.512-16.512-12.301-12.301-24.605-24.605-36.953-36.953l-37.738-37.738c-6.4766-6.4766-12.766-13.18-19.469-19.469-3.5625-3.3281-8.6484-3.6055-12.301-0.23047-1.9414 1.8047-3.793 3.793-5.6406 5.6406-5.457 5.457-11.098 10.82-16.418 16.418-3.4688 3.6523-3.5625 8.7891-0.14062 12.488 0.55469 0.64844 1.2031 1.2031 1.8047 1.8047l83.43 83.43c7.3516 7.3516 14.66 14.754 22.059 22.059 1.8945 1.8945 4.207 3.2383 7.0312 3.1914 3.793-0.09375 6.0117-2.6836 8.4648-5.0859l22.434-22.434c4.0703-4.3828-2.4492-10.949-6.6562-6.6953z"
       fill="#ff001b"
       id="path6"
       style="fill:#ffffff;fill-opacity:1;stroke:#ffffff;stroke-opacity:1" />
    <path
       d="m496.2 278.09-125.01 125.01-28.074-28.074 125.01-125.01c1.5273-1.5273 4.0703-1.5273 5.5977 0l22.43 22.43c1.4805 1.4844 1.5742 4.1172 0.046875 5.6445z"
       fill="#ff001b"
       id="path8"
       style="fill:#ffffff;fill-opacity:1" />
    <path
       d="m492.92 274.81c-4.1641 4.1641-8.2773 8.2773-12.441 12.441-9.9414 9.9414-19.887 19.887-29.828 29.828-12.023 12.023-24.051 24.051-36.121 36.121l-41.531 41.531c-1.6172 1.6172-3.4219 3.1445-4.9023 4.9023-0.046875 0.09375-0.14062 0.14063-0.23047 0.23047h6.5195l-24.559-24.559c-1.1562-1.1562-2.3594-2.3594-3.5156-3.5156v6.5195l17.25-17.25c12.949-12.949 25.945-25.945 38.895-38.895l41.625-41.625c8.5078-8.5078 17.066-17.066 25.574-25.574 0.23047-0.23047 1.6172-1.2969 1.6172-1.6172 0 0.78516-1.25-0.64844-0.60156 0.27734 0.64844 0.97266 1.8516 1.8516 2.6836 2.6836 6.1953 6.1953 12.348 12.348 18.547 18.547 0.14062 0.14062 0.55469 0.73828 0.78516 0.78516 0.23438 0.003906-0.18359-0.32031 0.23438-0.83203-1.6172 1.8945-1.8945 4.6719 0 6.5195 1.6641 1.6641 4.9492 1.9414 6.5195 0 3.0977-3.6992 3.2383-8.5547-0.09375-12.211-0.64844-0.69531-1.3398-1.3398-1.9883-1.9883-3.2852-3.2852-6.5664-6.5664-9.8516-9.8516-3.0977-3.0977-6.1953-6.1953-9.25-9.25-0.83203-0.83203-1.6641-1.7578-2.7305-2.4062-3.4219-2.1719-7.7695-1.5742-10.73 1.1562-6.6133 6.1055-12.766 12.766-19.148 19.148-13.688 13.688-27.379 27.379-41.066 41.066-14.059 14.059-28.164 28.164-42.223 42.223-7.3984 7.3984-15.078 14.613-22.246 22.246-0.09375 0.09375-0.23047 0.23047-0.32422 0.32422-1.7578 1.7578-1.7578 4.7617 0 6.5195 8.1875 8.1875 16.371 16.371 24.559 24.559l3.5156 3.5156c1.7578 1.7578 4.7617 1.7578 6.5195 0 4.1641-4.1641 8.2773-8.2773 12.441-12.441 9.9414-9.9414 19.887-19.887 29.828-29.828 12.023-12.023 24.051-24.051 36.121-36.121l31.219-31.219c5.043-5.043 10.359-9.9414 15.215-15.215 0.09375-0.09375 0.14062-0.14063 0.23047-0.23047 4.2578-4.2031-2.3086-10.723-6.5156-6.5156z"
       fill="#ff001b"
       id="path10"
       style="fill:#ffffff;fill-opacity:1;stroke:#ffffff;stroke-opacity:1" />
    <path
       d="m597.16 278.09-223.98 223.98c-1.5273 1.5273-4.1172 1.3867-5.5977-0.14062l-107.99-107.99c-1.5273-1.5273-1.5742-4.0703-0.09375-5.5977l22.43-22.43c1.5273-1.5273 4.0234-1.3867 5.5039 0.14062l82.785 82.785 198.87-198.87c1.5273-1.5273 4.0703-1.5273 5.5977 0l22.43 22.43c1.4805 1.5273 1.5742 4.1602 0.046875 5.6875z"
       fill="#ff001b"
       id="path12"
       style="fill:#ffffff;fill-opacity:1" />
    <path
       d="m593.88 274.81c-7.2617 7.2617-14.477 14.477-21.738 21.738-17.344 17.344-34.73 34.688-52.074 52.074l-63.5 63.5c-18.73 18.73-37.508 37.508-56.238 56.238-9.8047 9.8047-19.609 19.609-29.414 29.414-0.23047 0.23047-0.73828 0.55469-0.87891 0.87891-0.32422 0.73828 0.69531-0.78516 0.69531 0.046875 0-0.37109-1.5273-1.5273-1.7578-1.7578-1.2969-1.2969-2.5898-2.5898-3.8867-3.8867-9.5273-9.5273-19.055-19.055-28.535-28.535l-37.832-37.832c-9.8984-9.8984-19.84-19.84-29.738-29.738-1.5273-1.5273-3.0508-3.0508-4.5312-4.5312-0.14062-0.14062-1.3867-1.6641-1.6172-1.6172 0.83203-0.14062-0.83203 1.4805 0.32422 0.60156 0.73828-0.55469 1.3867-1.3867 2.0352-2.0352 2.3125-2.3125 4.6719-4.6719 6.9844-6.9844 2.543-2.543 5.043-5.043 7.5859-7.5859 1.6172-1.6172 3.6055-3.1914 5.043-5.043 0.83203-1.1094-0.55469 0.64844-0.64844-0.27734 0 0.27734 0.97266 0.97266 1.1562 1.1562 2.082 2.082 4.1641 4.1641 6.1953 6.1953l20.625 20.625c15.816 15.816 31.68 31.68 47.496 47.496 2.4492 2.4492 4.8555 4.8555 7.3086 7.3086 1.7578 1.7578 4.7617 1.7578 6.5195 0 8.1406-8.1406 16.281-16.281 24.465-24.465 18.871-18.871 37.738-37.738 56.609-56.609 21.227-21.227 42.457-42.457 63.684-63.684 15.215-15.215 30.477-30.477 45.691-45.691 1.8945-1.8945 3.793-3.793 5.6875-5.6875 0.50781-0.50781 2.4062-1.8516 2.5898-2.5898-0.046876 0.14062-1.0625-0.55469-0.46094 0.27734 1.3867 1.8516 3.4219 3.4219 5.043 5.043 4.9492 4.9492 9.8516 9.8516 14.801 14.801 0.60156 0.60156 1.1562 1.3398 1.8047 1.8047 0.83203 0.41797-0.046876 0.046875 0.50781-0.64844-1.6172 1.8945-1.8945 4.6719 0 6.5195 1.6641 1.6641 4.9492 1.9414 6.5195 0 3.375-4.0234 3.0078-9.0195-0.60156-12.719-1.8047-1.8516-3.6523-3.6523-5.457-5.457-4.9492-4.9492-9.8984-9.8984-14.891-14.891-2.3125-2.3125-4.6719-4.207-8.2305-3.9766-2.2188 0.14062-4.1172 1.2031-5.6875 2.6836-1.0156 0.97266-2.0352 2.0352-3.0508 3.0508-5.0859 5.0859-10.176 10.176-15.215 15.215l-24.465 24.465c-10.176 10.176-20.395 20.395-30.57 30.57-11.055 11.055-22.152 22.152-33.207 33.207-10.777 10.777-21.551 21.551-32.328 32.328l-49.207 49.207c-3.3281 3.3281-6.9375 6.5664-10.129 10.129l-0.41797 0.41797h6.5195c-7.9102-7.9102-15.77-15.77-23.68-23.68l-17.527-17.527c-7.7695-7.7695-15.492-15.492-23.262-23.262-4.4414-4.4414-8.832-8.832-13.273-13.273-1.6172-1.6172-3.2383-3.3281-4.9023-4.9023-3.6055-3.375-8.6953-3.5156-12.348-0.14062-4.207 3.8867-8.1406 8.1406-12.211 12.211l-7.2148 7.2148c-1.3398 1.3398-2.9609 2.6836-3.9766 4.2539-2.3125 3.6523-1.2969 8.0469 1.5742 11.055 1.0625 1.1094 2.1719 2.1719 3.2383 3.2383 4.3477 4.3477 8.6484 8.6484 12.996 12.996 9.2969 9.2969 18.59 18.59 27.934 27.934 4.0703 4.0703 8.1406 8.1406 12.254 12.254 10.223 10.223 20.441 20.441 30.707 30.664 6.7969 6.7969 13.367 13.828 20.395 20.348 3.793 3.5625 9.0195 3.4688 12.766-0.09375 1.0156-0.97266 2.0352-2.0352 3.0508-3.0508 4.6719-4.6719 9.3438-9.3438 14.012-14.012 7.4922-7.4922 14.984-14.984 22.43-22.43 9.4805-9.4805 18.914-18.914 28.395-28.395 10.543-10.543 21.09-21.09 31.633-31.633 10.914-10.914 21.828-21.828 32.699-32.699l31.125-31.125c9.0195-9.0195 18.035-18.035 27.055-27.055 6.7969-6.7969 13.598-13.598 20.441-20.441 3.7461-3.7461 7.5391-7.5391 11.285-11.285 0.46094-0.46094 0.97266-0.97266 1.4336-1.4336 4.168-4.168-2.3984-10.688-6.6094-6.4805z"
       fill="#ff001b"
       id="path14"
       style="fill:#ffffff;fill-opacity:1;stroke:#ffffff;stroke-opacity:1" />
  </g>
</svg>
